<svg xmlns="http://www.w3.org/2000/svg" width="500" height="93" viewBox="0 0 500 93" fill="none"><path d="M46.4944 21.1047C49.2585 14.925 56.2653 5.14422 73.7001 0C73.7001 0 79.7667 31.5921 53.1429 35.8981C45.282 37.4284 43.9019 38.3552 43.9019 38.3552L44.5957 28.7872C44.7752 26.1416 45.417 23.5443 46.4944 21.1047Z" fill="#C42237"></path><path d="M51.7832 38.0803C51.7832 38.0803 72.8171 38.4382 77.1632 16.0288C84.2535 20.5092 90.2073 33.567 80.0069 39.9119C72.3119 44.6937 60.4214 40.2872 51.7832 38.0803Z" fill="#C42237"></path><path d="M79.2973 53.7969C79.2347 52.7012 79.155 51.5297 79.0584 50.3436C80.138 48.7576 81.2149 47.0009 82.2812 45.0405C82.2812 45.0405 45.6761 38.3413 40.5632 58.8717C38.9091 65.2458 40.5262 65.2458 40.5262 65.2458L58.9534 64.5053C59.404 64.5135 59.8545 64.486 60.3004 64.4231C60.1246 65.0504 59.8913 65.6615 59.6037 66.2492C58.7641 67.9291 57.5627 69.4177 56.0794 70.6155C54.5107 71.8868 52.7313 72.8952 50.8157 73.5985C48.7339 74.3604 46.5304 74.768 44.3036 74.8028C40.9676 74.885 37.844 74.3779 34.9326 73.2817C29.1601 71.1314 24.5052 66.8685 21.9843 61.4236C20.6971 58.6808 20.0096 55.6634 19.9218 52.3715C19.8339 49.0797 20.3195 46.0108 21.3787 43.1651C22.3677 40.4287 23.9213 37.9132 25.946 35.7704C27.9707 33.6276 30.4247 31.9015 33.1602 30.6963C36.6835 29.1167 42.2286 28.7514 42.2286 28.7514C42.2286 28.7514 42.3235 25.5 43.8799 21.2798C43.0449 21.2112 42.2011 21.172 41.3481 21.172C24.1911 21.172 10.2408 35.0671 10.2408 52.1478C10.2408 69.2286 24.1949 83.1227 41.3481 83.1227C57.9524 83.1227 66.8154 74.7352 70.4486 64.4231H72.2666C68.0959 77.1896 57.0368 84.7197 41.3481 84.7197C23.2811 84.7197 8.58202 70.1105 8.58202 52.1478C8.58202 34.185 23.2811 19.575 41.3481 19.575C42.4006 19.5777 43.4523 19.6325 44.4989 19.7394C45.6405 17.0948 47.2059 14.6394 49.1379 12.4623C46.7917 12.1636 44.4249 12.0414 42.059 12.097C35.7681 12.2541 30.014 13.3845 24.7968 15.4882C19.5795 17.5919 15.1052 20.4833 11.3736 24.1624C7.63879 27.8366 4.7146 32.2011 2.77708 36.9927C0.785854 41.8703 -0.134556 47.1594 0.0158432 52.86C0.166244 58.5606 1.29171 63.7982 3.39226 68.5729C5.42232 73.2523 8.44089 77.4738 12.256 80.9688C16.0679 84.4573 20.5575 87.1256 25.7248 88.9737C30.8921 90.8217 36.6613 91.6657 43.0325 91.5056C48.3408 91.3741 53.247 90.4306 57.7515 88.6751C62.2559 86.9196 66.155 84.5009 69.4486 81.4189C72.7364 78.3441 75.3128 74.6349 77.009 70.5343C78.7563 66.3597 79.5626 61.788 79.4281 56.8191C79.4148 56.0844 79.3711 55.0769 79.2973 53.7969Z" fill="#C42237"></path><path d="M481.134 75.714C476.418 75.714 472.196 74.7324 468.47 72.7693C464.801 70.8062 461.919 68.1139 459.823 64.6925C457.726 61.271 456.678 57.3448 456.678 52.9138C456.678 48.4828 457.726 44.5565 459.823 41.1351C461.919 37.7137 464.801 35.0495 468.47 33.1424C472.196 31.1793 476.418 30.1978 481.134 30.1978C485.327 30.1978 489.053 31.011 492.314 32.6376C495.633 34.2081 498.195 36.5639 500 39.7048L493.624 43.6591C492.11 41.4716 490.247 39.8731 488.034 38.8635C485.88 37.7978 483.551 37.265 481.047 37.265C478.019 37.265 475.311 37.91 472.924 39.2C470.537 40.4901 468.644 42.313 467.247 44.6687C465.849 46.9684 465.15 49.7167 465.15 52.9138C465.15 56.1109 465.849 58.8873 467.247 61.243C468.644 63.5987 470.537 65.4216 472.924 66.7117C475.311 68.0017 478.019 68.6468 481.047 68.6468C483.551 68.6468 485.88 68.142 488.034 67.1323C490.247 66.0667 492.11 64.4401 493.624 62.2526L500 66.1227C498.195 69.2076 495.633 71.5914 492.314 73.2741C489.053 74.9007 485.327 75.714 481.134 75.714Z" fill="#C42237"></path><path d="M431.6 75.714C426.651 75.714 422.284 74.7324 418.499 72.7693C414.772 70.8062 411.861 68.1139 409.765 64.6925C407.727 61.271 406.708 57.3448 406.708 52.9138C406.708 48.4828 407.697 44.5565 409.677 41.1351C411.715 37.7137 414.481 35.0495 417.975 33.1424C421.527 31.1793 425.515 30.1978 429.941 30.1978C434.424 30.1978 438.384 31.1513 441.819 33.0583C445.255 34.9653 447.934 37.6576 449.855 41.1351C451.835 44.5565 452.825 48.5669 452.825 53.1662C452.825 53.5027 452.796 53.8953 452.737 54.3441C452.737 54.7928 452.708 55.2134 452.65 55.6061H413.258V49.8009H448.283L444.876 51.8201C444.935 48.9595 444.323 46.4075 443.042 44.1639C441.761 41.9203 439.985 40.1816 437.714 38.9476C435.502 37.6576 432.91 37.0126 429.941 37.0126C427.029 37.0126 424.438 37.6576 422.167 38.9476C419.896 40.1816 418.12 41.9484 416.839 44.248C415.558 46.4916 414.918 49.0717 414.918 51.9883V53.3345C414.918 56.3072 415.617 58.9714 417.014 61.3271C418.47 63.6268 420.479 65.4216 423.041 66.7117C425.603 68.0017 428.543 68.6468 431.862 68.6468C434.599 68.6468 437.074 68.198 439.287 67.3006C441.557 66.4032 443.537 65.0571 445.226 63.2622L449.855 68.4785C447.759 70.8342 445.139 72.6291 441.994 73.863C438.908 75.097 435.443 75.714 431.6 75.714Z" fill="#C42237"></path><path d="M395.732 75.7139C391.073 75.7139 387.463 74.508 384.901 72.0962C382.339 69.6844 381.058 66.2349 381.058 61.7478V20.8589H389.443V61.4112C389.443 63.8231 390.054 65.674 391.277 66.964C392.558 68.2541 394.363 68.8991 396.693 68.8991C399.313 68.8991 401.496 68.198 403.243 66.7958L405.864 72.601C404.583 73.6667 403.04 74.4519 401.234 74.9567C399.488 75.4615 397.653 75.7139 395.732 75.7139ZM373.197 37.2649V30.6184H402.719V37.2649H373.197Z" fill="#C42237"></path><path d="M346.247 75.2092V30.6184H354.282V42.7336L353.496 39.7048C354.777 36.6199 356.932 34.2642 359.959 32.6376C362.987 31.011 366.714 30.1978 371.139 30.1978V38.0222C370.79 37.9661 370.441 37.938 370.091 37.938C369.8 37.938 369.509 37.938 369.218 37.938C364.734 37.938 361.182 39.2281 358.562 41.8082C355.942 44.3883 354.632 48.1182 354.632 52.9979V75.2092H346.247Z" fill="#C42237"></path><path d="M316.869 75.714C311.92 75.714 307.553 74.7324 303.768 72.7693C300.041 70.8062 297.13 68.1139 295.034 64.6925C292.996 61.271 291.977 57.3448 291.977 52.9138C291.977 48.4828 292.966 44.5565 294.946 41.1351C296.984 37.7137 299.75 35.0495 303.244 33.1424C306.796 31.1793 310.784 30.1978 315.21 30.1978C319.693 30.1978 323.653 31.1513 327.089 33.0583C330.524 34.9653 333.203 37.6576 335.124 41.1351C337.104 44.5565 338.094 48.5669 338.094 53.1662C338.094 53.5027 338.065 53.8953 338.006 54.3441C338.006 54.7928 337.977 55.2134 337.919 55.6061H298.527V49.8009H333.552L330.146 51.8201C330.204 48.9595 329.592 46.4075 328.311 44.1639C327.03 41.9203 325.254 40.1816 322.983 38.9476C320.771 37.6576 318.18 37.0126 315.21 37.0126C312.298 37.0126 309.707 37.6576 307.436 38.9476C305.165 40.1816 303.389 41.9484 302.108 44.248C300.827 46.4916 300.187 49.0717 300.187 51.9883V53.3345C300.187 56.3072 300.886 58.9714 302.283 61.3271C303.739 63.6268 305.748 65.4216 308.31 66.7117C310.872 68.0017 313.812 68.6468 317.131 68.6468C319.868 68.6468 322.343 68.198 324.556 67.3006C326.827 66.4032 328.806 65.0571 330.495 63.2622L335.124 68.4785C333.028 70.8342 330.408 72.6291 327.263 73.863C324.177 75.097 320.712 75.714 316.869 75.714Z" fill="#C42237"></path><path d="M259.713 92.0359C255.463 92.0359 251.328 91.4469 247.311 90.2691C243.351 89.1473 240.119 87.5207 237.616 85.3893L241.633 79.1634C243.788 80.9583 246.437 82.3605 249.582 83.3701C252.726 84.4358 256.016 84.9686 259.451 84.9686C264.925 84.9686 268.943 83.7347 271.505 81.2668C274.067 78.7989 275.348 75.0409 275.348 69.9929V60.5699L276.221 51.7359L275.784 42.8178V30.6184H283.733V69.1516C283.733 77.004 281.695 82.7812 277.619 86.483C273.543 90.1849 267.574 92.0359 259.713 92.0359ZM258.665 73.3582C254.182 73.3582 250.164 72.4608 246.612 70.666C243.118 68.815 240.323 66.263 238.227 63.0098C236.189 59.7566 235.17 55.9987 235.17 51.7359C235.17 47.4171 236.189 43.6591 238.227 40.462C240.323 37.2089 243.118 34.6849 246.612 32.89C250.164 31.0952 254.182 30.1978 258.665 30.1978C262.625 30.1978 266.235 30.983 269.496 32.5535C272.757 34.0679 275.348 36.4236 277.269 39.6207C279.249 42.8178 280.239 46.8562 280.239 51.7359C280.239 56.5596 279.249 60.5699 277.269 63.767C275.348 66.9641 272.757 69.3759 269.496 71.0025C266.235 72.573 262.625 73.3582 258.665 73.3582ZM259.626 66.291C262.712 66.291 265.449 65.674 267.836 64.4401C270.224 63.2061 272.087 61.4954 273.426 59.3079C274.824 57.1205 275.522 54.5965 275.522 51.7359C275.522 48.8754 274.824 46.3514 273.426 44.1639C272.087 41.9764 270.224 40.2938 267.836 39.1159C265.449 37.8819 262.712 37.265 259.626 37.265C256.54 37.265 253.774 37.8819 251.328 39.1159C248.941 40.2938 247.049 41.9764 245.651 44.1639C244.312 46.3514 243.642 48.8754 243.642 51.7359C243.642 54.5965 244.312 57.1205 245.651 59.3079C247.049 61.4954 248.941 63.2061 251.328 64.4401C253.774 65.674 256.54 66.291 259.626 66.291Z" fill="#C42237"></path><path d="M208.191 30.1978C211.976 30.1978 215.295 30.8989 218.148 32.3011C221.059 33.7033 223.33 35.8347 224.961 38.6952C226.591 41.5558 227.406 45.1735 227.406 49.5485V75.2092H219.021V50.4739C219.021 46.1551 217.915 42.9019 215.702 40.7144C213.548 38.527 210.491 37.4332 206.531 37.4332C203.562 37.4332 200.97 37.9941 198.758 39.1159C196.545 40.2377 194.827 41.8923 193.604 44.0798C192.44 46.2672 191.858 48.9876 191.858 52.2407V75.2092H183.473V30.6184H191.508V42.6495L190.198 39.4524C191.712 36.5358 194.041 34.2642 197.186 32.6376C200.33 31.011 203.998 30.1978 208.191 30.1978Z" fill="#C42237"></path><path d="M162.569 75.2091V30.6183H170.954V75.2091H162.569ZM166.761 22.0367C165.131 22.0367 163.763 21.5319 162.656 20.5223C161.608 19.5127 161.084 18.2787 161.084 16.8204C161.084 15.306 161.608 14.044 162.656 13.0344C163.763 12.0248 165.131 11.52 166.761 11.52C168.392 11.52 169.731 12.0248 170.779 13.0344C171.885 13.9879 172.439 15.1938 172.439 16.6522C172.439 18.1666 171.915 19.4566 170.866 20.5223C169.818 21.5319 168.45 22.0367 166.761 22.0367Z" fill="#C42237"></path><path d="M126.018 92.0359C121.767 92.0359 117.633 91.4469 113.615 90.2691C109.656 89.1473 106.424 87.5207 103.92 85.3893L107.938 79.1634C110.092 80.9583 112.742 82.3605 115.886 83.3701C119.031 84.4358 122.32 84.9686 125.756 84.9686C131.229 84.9686 135.247 83.7347 137.809 81.2668C140.371 78.7989 141.652 75.0409 141.652 69.9929V60.5699L142.526 51.7359L142.089 42.8178V30.6184H150.037V69.1516C150.037 77.004 147.999 82.7812 143.923 86.483C139.847 90.1849 133.879 92.0359 126.018 92.0359ZM124.97 73.3582C120.486 73.3582 116.469 72.4608 112.917 70.666C109.423 68.815 106.628 66.263 104.532 63.0098C102.494 59.7566 101.475 55.9987 101.475 51.7359C101.475 47.4171 102.494 43.6591 104.532 40.462C106.628 37.2089 109.423 34.6849 112.917 32.89C116.469 31.0952 120.486 30.1978 124.97 30.1978C128.929 30.1978 132.54 30.983 135.8 32.5535C139.061 34.0679 141.652 36.4236 143.574 39.6207C145.554 42.8178 146.544 46.8562 146.544 51.7359C146.544 56.5596 145.554 60.5699 143.574 63.767C141.652 66.9641 139.061 69.3759 135.8 71.0025C132.54 72.573 128.929 73.3582 124.97 73.3582ZM125.931 66.291C129.017 66.291 131.754 65.674 134.141 64.4401C136.528 63.2061 138.392 61.4954 139.731 59.3079C141.128 57.1205 141.827 54.5965 141.827 51.7359C141.827 48.8754 141.128 46.3514 139.731 44.1639C138.392 41.9764 136.528 40.2938 134.141 39.1159C131.754 37.8819 129.017 37.265 125.931 37.265C122.845 37.265 120.079 37.8819 117.633 39.1159C115.246 40.2938 113.353 41.9764 111.956 44.1639C110.617 46.3514 109.947 48.8754 109.947 51.7359C109.947 54.5965 110.617 57.1205 111.956 59.3079C113.353 61.4954 115.246 63.2061 117.633 64.4401C120.079 65.674 122.845 66.291 125.931 66.291Z" fill="#C42237"></path></svg>